<?xml version="1.0" encoding="UTF-8" standalone="no"?>
<!-- Created with Inkscape (http://www.inkscape.org/) -->

<svg
   width="74.15432mm"
   height="80.377335mm"
   viewBox="0 0 74.15432 80.377335"
   version="1.1"
   id="svg1"
   xml:space="preserve"
   xmlns="http://www.w3.org/2000/svg"
   xmlns:svg="http://www.w3.org/2000/svg"><defs
     id="defs1" /><g
     id="layer1"
     transform="translate(663.66286,897.87278)"><g
       id="g56"
       transform="translate(-490.80674,111.45525)"><g
         transform="matrix(0.2645836,0,0,0.2645836,-298.58386,-1169.5469)"
         id="g3"
         style="stroke:#a5adce;stroke-opacity:1"><g
           id="g7"
           style="stroke:#a5adce;stroke-opacity:1"><ellipse
             cx="615.06"
             cy="795.23999"
             rx="132.31"
             ry="106.54"
             id="ellipse1"
             style="fill:#181825;fill-opacity:1;stroke:#a5adce;stroke-width:15.118;stroke-linecap:round;stroke-opacity:1" /><ellipse
             cx="615.59003"
             cy="719.65002"
             rx="132.31"
             ry="106.54"
             id="ellipse2"
             style="fill:#181825;fill-opacity:1;stroke:#a5adce;stroke-width:15.118;stroke-linecap:round;stroke-opacity:1" /><rect
             transform="rotate(45)"
             x="875.33002"
             y="4.7586002"
             width="137.64"
             height="137.64"
             id="rect2"
             style="fill:#181825;fill-opacity:1;stroke:#a5adce;stroke-width:15.118;stroke-linecap:round;stroke-opacity:1" /><path
             d="m 620.59,719.65 c 10e-6,-20.958 -5,-41.917 -5,-41.917 0,0 -5,20.958 -5,41.917 0,20.958 5,41.915 5,41.915 0,0 5,-20.958 5,-41.915 z"
             fill="#ffffff"
             id="path2"
             style="fill:#a5adce;fill-opacity:1;stroke:#a5adce;stroke-opacity:1" /><path
             d="m 615.59,724.65 c 20.958,10e-6 41.917,-5 41.917,-5 0,0 -20.958,-5 -41.917,-5 -20.958,0 -41.915,5 -41.915,5 0,0 20.958,5 41.915,5 z"
             fill="#ffffff"
             id="path3"
             style="fill:#a5adce;fill-opacity:1;stroke:#a5adce;stroke-opacity:1" /></g></g></g></g></svg>
